<?xml version="1.0" encoding="UTF-8"?>
<svg width="20" height="20" viewBox="0 0 20 20" fill="none" xmlns="http://www.w3.org/2000/svg">
  <rect width="20" height="20" rx="2" fill="#E3E8F0"/>
  <!-- US flag stripes -->
  <rect width="20" height="1.54" fill="#B22234"/>
  <rect y="3.08" width="20" height="1.54" fill="#B22234"/>
  <rect y="6.15" width="20" height="1.54" fill="#B22234"/>
  <rect y="9.23" width="20" height="1.54" fill="#B22234"/>
  <rect y="12.31" width="20" height="1.54" fill="#B22234"/>
  <rect y="15.38" width="20" height="1.54" fill="#B22234"/>
  <rect y="18.46" width="20" height="1.54" fill="#B22234"/>
  <!-- Blue canton -->
  <rect width="8" height="10.77" fill="#3C3B6E"/>
  <!-- White stars (simplified as dots) -->
  <circle cx="1.6" cy="1.5" r="0.3" fill="white"/>
  <circle cx="3.2" cy="1.5" r="0.3" fill="white"/>
  <circle cx="4.8" cy="1.5" r="0.3" fill="white"/>
  <circle cx="6.4" cy="1.5" r="0.3" fill="white"/>
  <circle cx="2.4" cy="2.7" r="0.3" fill="white"/>
  <circle cx="4" cy="2.7" r="0.3" fill="white"/>
  <circle cx="5.6" cy="2.7" r="0.3" fill="white"/>
  <circle cx="1.6" cy="3.9" r="0.3" fill="white"/>
  <circle cx="3.2" cy="3.9" r="0.3" fill="white"/>
  <circle cx="4.8" cy="3.9" r="0.3" fill="white"/>
  <circle cx="6.4" cy="3.9" r="0.3" fill="white"/>
  <circle cx="2.4" cy="5.1" r="0.3" fill="white"/>
  <circle cx="4" cy="5.1" r="0.3" fill="white"/>
  <circle cx="5.6" cy="5.1" r="0.3" fill="white"/>
  <circle cx="1.6" cy="6.3" r="0.3" fill="white"/>
  <circle cx="3.2" cy="6.3" r="0.3" fill="white"/>
  <circle cx="4.8" cy="6.3" r="0.3" fill="white"/>
  <circle cx="6.4" cy="6.3" r="0.3" fill="white"/>
  <circle cx="2.4" cy="7.5" r="0.3" fill="white"/>
  <circle cx="4" cy="7.5" r="0.3" fill="white"/>
  <circle cx="5.6" cy="7.5" r="0.3" fill="white"/>
  <circle cx="1.6" cy="8.7" r="0.3" fill="white"/>
  <circle cx="3.2" cy="8.7" r="0.3" fill="white"/>
  <circle cx="4.8" cy="8.7" r="0.3" fill="white"/>
  <circle cx="6.4" cy="8.7" r="0.3" fill="white"/>
  <circle cx="2.4" cy="9.9" r="0.3" fill="white"/>
  <circle cx="4" cy="9.9" r="0.3" fill="white"/>
  <circle cx="5.6" cy="9.9" r="0.3" fill="white"/>
</svg>
